<svg xmlns="http://www.w3.org/2000/svg" viewBox="-6.00 24.00 461.10 174.78" width="462" height="175">
<path d="M29.30 100L5.70 100L5.70 30L39.40 30Q49.20 30 56.35 33.20Q63.50 36.40 67.40 42.35Q71.30 48.30 71.30 56.40Q71.30 64.50 67.40 70.40Q63.50 76.30 56.35 79.55Q49.20 82.80 39.40 82.80L39.40 82.80L29.30 82.80L29.30 100ZM29.30 48.20L29.30 64.60L37.90 64.60Q42.80 64.60 45.15 62.40Q47.50 60.20 47.50 56.40Q47.50 52.60 45.15 50.40Q42.80 48.20 37.90 48.20L37.90 48.20L29.30 48.20Z M195.10 100L160.60 100L160.60 30L195.10 30Q206.80 30 215.70 34.25Q224.60 38.50 229.60 46.30Q234.60 54.10 234.60 65L234.60 65Q234.60 75.80 229.60 83.65Q224.60 91.50 215.70 95.75Q206.80 100 195.10 100L195.10 100ZM184.20 48.40L184.20 81.60L194.10 81.60Q199.10 81.60 202.85 79.70Q206.60 77.80 208.70 74.05Q210.80 70.30 210.80 65L210.80 65Q210.80 59.60 208.70 55.90Q206.60 52.20 202.85 50.30Q199.10 48.40 194.10 48.40L194.10 48.40L184.20 48.40Z M277.70 100L243.20 100L243.20 30L277.70 30Q289.40 30 298.30 34.25Q307.20 38.50 312.20 46.30Q317.20 54.10 317.20 65L317.20 65Q317.20 75.80 312.20 83.65Q307.20 91.50 298.30 95.75Q289.40 100 277.70 100L277.70 100ZM266.80 48.40L266.80 81.60L276.70 81.60Q281.70 81.60 285.45 79.70Q289.20 77.80 291.30 74.05Q293.40 70.30 293.40 65L293.40 65Q293.40 59.60 291.30 55.90Q289.20 52.20 285.45 50.30Q281.70 48.40 276.70 48.40L276.70 48.40L266.80 48.40Z M381 100L325.80 100L325.80 30L349.40 30L349.40 81.70L381 81.70L381 100Z M445.70 100L387.50 100L387.50 30L444.40 30L444.40 47.80L410.70 47.80L410.70 56L440.30 56L440.30 73L410.70 73L410.70 82.20L445.70 82.20L445.70 100Z" fill="#FFFFFF"></path><defs>
<clipPath id="hfl303" clipPathUnits="userSpaceOnUse"><path transform="translate(110.50 110.97) rotate(6)" d="M -6.87 -32.01 L 6.87 -32.01 L 4.22 -1.56 Q 0 1.87 -4.22 -1.56 Z"></path></clipPath>
<clipPath id="bfl303" clipPathUnits="userSpaceOnUse"><rect x="-54.20" y="100.00" width="337.60" height="137.57"></rect></clipPath>
<mask id="tfl303" maskUnits="userSpaceOnUse" x="-54.20" y="-96.60" width="337.60" height="334.17"><rect x="-54.20" y="-96.60" width="337.60" height="334.17" fill="#fff"></rect><g transform="translate(110.50 110.97) rotate(6)" fill="#000"><rect x="-15.61" y="-55.33" width="31.23" height="32.16" rx="6.56"></rect><path d="M -6.87 -32.01 L 6.87 -32.01 L 4.22 -1.56 Q 0 1.87 -4.22 -1.56 Z"></path></g><g clip-path="url(#hfl303)"><g transform="translate(110.50 110.97) rotate(6)"><line x1="-9.37" y1="-2.34" x2="9.37" y2="-6.40" stroke="#fff" stroke-width="2.65"></line><line x1="-9.37" y1="-7.65" x2="9.37" y2="-11.71" stroke="#fff" stroke-width="2.65"></line><line x1="-9.37" y1="-12.96" x2="9.37" y2="-17.02" stroke="#fff" stroke-width="2.65"></line><line x1="-9.37" y1="-18.27" x2="9.37" y2="-22.33" stroke="#fff" stroke-width="2.65"></line></g></g></mask>
<mask id="sfl303" maskUnits="userSpaceOnUse" x="-54.20" y="-96.60" width="337.60" height="334.17"><rect x="-54.20" y="-96.60" width="337.60" height="334.17" fill="#fff"></rect><g clip-path="url(#hfl303)"><g transform="translate(110.50 110.97) rotate(6)"><line x1="-9.37" y1="-2.34" x2="9.37" y2="-6.40" stroke="#000" stroke-width="2.65"></line><line x1="-9.37" y1="-7.65" x2="9.37" y2="-11.71" stroke="#000" stroke-width="2.65"></line><line x1="-9.37" y1="-12.96" x2="9.37" y2="-17.02" stroke="#000" stroke-width="2.65"></line><line x1="-9.37" y1="-18.27" x2="9.37" y2="-22.33" stroke="#000" stroke-width="2.65"></line></g></g></mask></defs>
<path d="M 114.60 30.00 L 156.80 100.00 L 72.40 100.00 Z" fill="#FFFFFF" mask="url(#tfl303)"></path>
<g clip-path="url(#bfl303)" mask="url(#sfl303)"><g transform="translate(110.50 110.97) rotate(6)" fill="#FFFFFF"><path d="M -6.87 -32.01 L 6.87 -32.01 L 4.22 -1.56 Q 0 1.87 -4.22 -1.56 Z"></path></g></g><path d="M31.22 192.78L6.07 192.78L6.07 118.20L41.98 118.20Q52.42 118.20 60.04 121.61Q67.66 125.02 71.81 131.36Q75.97 137.70 75.97 146.33Q75.97 154.96 71.81 161.25Q67.66 167.53 60.04 170.99Q52.42 174.46 41.98 174.46L41.98 174.46L31.22 174.46L31.22 192.78ZM31.22 137.59L31.22 155.07L40.38 155.07Q45.60 155.07 48.11 152.72Q50.61 150.38 50.61 146.33Q50.61 142.28 48.11 139.94Q45.60 137.59 40.38 137.59L40.38 137.59L31.22 137.59Z M124.45 194.49L124.45 194.49Q115.28 194.49 107.56 191.61Q99.84 188.73 94.19 183.46Q88.54 178.19 85.40 171.05Q82.26 163.91 82.26 155.49L82.26 155.49Q82.26 146.97 85.40 139.88Q88.54 132.80 94.19 127.52Q99.84 122.25 107.56 119.37Q115.28 116.50 124.34 116.50L124.34 116.50Q133.50 116.50 141.18 119.37Q148.85 122.25 154.49 127.52Q160.14 132.80 163.28 139.88Q166.43 146.97 166.43 155.49L166.43 155.49Q166.43 163.91 163.28 171.05Q160.14 178.19 154.49 183.46Q148.85 188.73 141.18 191.61Q133.50 194.49 124.45 194.49ZM124.34 174.14L124.34 174.14Q127.86 174.14 130.89 172.86Q133.93 171.58 136.22 169.18Q138.51 166.79 139.79 163.32Q141.07 159.86 141.07 155.49L141.07 155.49Q141.07 151.12 139.79 147.66Q138.51 144.20 136.22 141.80Q133.93 139.40 130.89 138.12Q127.86 136.85 124.34 136.85L124.34 136.85Q120.83 136.85 117.79 138.12Q114.75 139.40 112.46 141.80Q110.17 144.20 108.89 147.66Q107.61 151.12 107.61 155.49L107.61 155.49Q107.61 159.86 108.89 163.32Q110.17 166.79 112.46 169.18Q114.75 171.58 117.79 172.86Q120.83 174.14 124.34 174.14Z M221.41 192.78L194.45 192.78L170.58 118.20L196.47 118.20L209.47 160.61L223.22 118.20L246.34 118.20L259.34 161.14L273.08 118.20L296.95 118.20L273.08 192.78L246.13 192.78L234.09 152.93L221.41 192.78Z M366.10 192.78L304.09 192.78L304.09 118.20L364.71 118.20L364.71 137.17L328.81 137.17L328.81 145.90L360.35 145.90L360.35 164.02L328.81 164.02L328.81 173.82L366.10 173.82L366.10 192.78Z M400.94 192.78L375.79 192.78L375.79 118.20L410.64 118.20Q427.79 118.20 436.74 125.76Q445.69 133.33 445.69 146.33L445.69 146.33Q445.69 154.96 441.54 161.14L441.54 161.14Q437.91 166.68 431.63 169.88L431.63 169.88L447.29 192.78L420.44 192.78L407.76 174.03L400.94 174.03L400.94 192.78ZM400.94 137.59L400.94 155.07L410.10 155.07Q415.32 155.07 417.83 152.72Q420.33 150.38 420.33 146.33Q420.33 142.28 417.83 139.94Q415.32 137.59 410.10 137.59L410.10 137.59L400.94 137.59Z" fill="#FFFFFF"></path>
</svg>
